<?xml version="1.0" encoding="utf-8"?>
<!-- Generator: Adobe Illustrator 19.2.0, SVG Export Plug-In . SVG Version: 6.00 Build 0)  -->
<svg version="1.1" id="Layer_1" xmlns="http://www.w3.org/2000/svg" xmlns:xlink="http://www.w3.org/1999/xlink" x="0px" y="0px"
	 viewBox="0 0 250 250" style="enable-background:new 0 0 250 250;" xml:space="preserve">
<style type="text/css">
	.st0{fill:#FFFFFF;}
</style>
<path class="st0" d="M241.1,55.6L241.1,55.6l-3.9-4.1l-0.1,0.1c-6-5.1-13.5-7.9-21.5-7.9c-8.9,0-17.3,3.5-23.6,9.8l-50.7,50.7
	l0.2,3.1l-3-0.3l-30.1,30.1v43.2l-22,22l4,4l22-22h43.2l60.9-60.9l0.1-3.3l3.4-0.2l19.1-19.1c6.3-6.3,9.8-14.7,9.8-23.6
	C249,69.2,246.2,61.6,241.1,55.6z M243.4,77.1c0,5.6-1.6,10.9-4.7,15.5l-34.4-0.1l32.8-32.9C241.2,64.5,243.4,70.7,243.4,77.1z
	 M215.6,49.4c6.5,0,12.6,2.2,17.5,6.2l-39.6,39.6l-0.1-35.1l2.6-2.6C201.3,52.3,208.2,49.4,215.6,49.4z M170.5,126.3l35.1,0.1
	l-32.3,32.3l-35.1-0.1L170.5,126.3z M164.2,124.6L164,89.5l23.8-23.8l0.1,35.1L164.2,124.6z M140.7,112.9l6.9,0.7l-0.4-7.2
	l11.3-11.3l0.1,35.1l-24.3,24.3l-0.1-35.1L140.7,112.9z M114.2,139.4l14.3-14.3l0.1,35.1l-14.5,14.5V139.4z M153.4,178.6h-35.2
	l14.4-14.5l35.1,0.1L153.4,178.6z M217.6,114.3l-6.4,0.4l-0.2,6.1l-35-0.1l22.6-22.6l35.1,0.1L217.6,114.3z M98.4,143.4H1v-5.6h97.4
	V143.4z M98.4,161.6H1V156h97.4V161.6z M98.4,179.7H1v-5.6h97.4V179.7z M74.7,197.9H1v-5.6h73.7L74.7,197.9L74.7,197.9z"/>
</svg>
